# xmcd
#
# Track frame offsets: 
#        150
#        11937
#        27078
#        45390
#        61661
#        81541
#        94961
#        113093
#        135968
#        153110
#        169252
#        189114
#        204247
#        226644
#        250780
#        272173
#        289010
#        304605
#        328306
#        347938
#
# Disc length: 4793 seconds
#
# Revision: 1
# Processed by: cddbd v1.5.2PL0 Copyright (c) Steve Scherf et al.
# Submitted via: ExactAudioCopy v0.99pb5
#
DISCID=0812b714
DTITLE=Rafael Labasta - The Best Of Rafael Labasta Y Su Orquesta
DYEAR=2011
DGENRE=Salsa
TTITLE0=Labasta Llego
TTITLE1=Ahora Si
TTITLE2=Mucho Guaguanco
TTITLE3=Piculina
TTITLE4=Sun Sun Ba Bae
TTITLE5=La Gallina
TTITLE6=Yo Soy El Guaguanco
TTITLE7=Chaleco
TTITLE8=Tumbando Caña
TTITLE9=Noche De Farra
TTITLE10=La Toalla
TTITLE11=Guaguanco Bongo
TTITLE12=El Rey De Los Pollos
TTITLE13=De Repente
TTITLE14=Sanson Batalla
TTITLE15=Yo Soy La Candela
TTITLE16=Tatalibaba
TTITLE17=Donde Estabas Tu
TTITLE18=No Volvere
TTITLE19=Asi Soy Yo
EXTD=
EXTT0=
EXTT1=
EXTT2=
EXTT3=
EXTT4=
EXTT5=
EXTT6=
EXTT7=
EXTT8=
EXTT9=
EXTT10=
EXTT11=
EXTT12=
EXTT13=
EXTT14=
EXTT15=
EXTT16=
EXTT17=
EXTT18=
EXTT19=
PLAYORDER=
